<svg width="16" height="14" viewBox="0 0 16 14" fill="none" xmlns="http://www.w3.org/2000/svg">
<path fill-rule="evenodd" clip-rule="evenodd" d="M11.9682 13.4949C12.9127 13.9081 13.2669 13.0423 13.2669 13.0423L15.7661 0.48746C15.7464 -0.358712 14.6051 0.152927 14.6051 0.152927L0.61372 5.6432C0.61372 5.6432 -0.0553463 5.87935 0.00368897 6.29259C0.0627242 6.70584 0.594041 6.90262 0.594041 6.90262L4.11648 8.08333C4.11648 8.08333 5.17911 11.5664 5.39557 12.2355C5.59236 12.8849 5.76946 12.9045 5.76946 12.9045C5.96625 12.9833 6.14335 12.8455 6.14335 12.8455L8.42605 10.7793L11.9682 13.4949ZM12.5781 2.71105C12.5781 2.71105 13.0701 2.41587 13.0504 2.71105C13.0504 2.71105 13.1291 2.7504 12.8733 3.0259C12.6371 3.26204 7.06815 8.26036 6.32037 8.92943C6.26134 8.96878 6.22198 9.02782 6.22198 9.10653L6.00552 10.9563C5.96616 11.1531 5.71034 11.1728 5.6513 10.9957L4.72642 7.96518C4.68706 7.84711 4.72642 7.70936 4.84449 7.63065L12.5781 2.71105Z" fill="#30C884"/>
</svg>
