<svg width="26" height="26" viewBox="0 0 26 26" fill="none" xmlns="http://www.w3.org/2000/svg">
<path d="M7.6897 20.2739C7.6897 21.1039 8.3597 21.7739 9.1897 21.7739C10.0197 21.7739 10.6897 21.1039 10.6897 20.2739V19.7739H7.6897V20.2739Z" fill="#30C884"/>
<path d="M6.6897 4.77393C5.6197 4.77393 4.6097 5.17239 3.8597 5.89393C3.7497 5.99085 3.6897 6.14162 3.6897 6.29239V10.7939C3.6897 10.9447 3.7497 11.0955 3.8597 11.1924C4.8497 12.1401 6.3497 12.5278 7.6897 12.1939V18.7739H10.6897V8.54316C10.6897 6.4647 8.8997 4.77393 6.6897 4.77393ZM5.2097 9.08162C4.9337 9.08162 4.7047 8.84039 4.7047 8.54316C4.7047 8.24593 4.9237 8.0047 5.1997 8.0047H5.2097C5.4857 8.0047 5.7097 8.24593 5.7097 8.54316C5.7097 8.84039 5.4857 9.08162 5.2097 9.08162ZM8.1897 9.08162C7.9137 9.08162 7.6897 8.84039 7.6897 8.54316C7.6897 8.24593 7.4657 8.0047 7.1897 8.0047C6.9137 8.0047 6.6897 7.76346 6.6897 7.46623C6.6897 7.169 6.9137 6.92777 7.1897 6.92777C8.0167 6.92777 8.6897 7.65254 8.6897 8.54316C8.6897 8.84039 8.4657 9.08162 8.1897 9.08162Z" fill="#30C884"/>
<path d="M13.6897 20.2739C13.6897 21.1039 14.3597 21.7739 15.1897 21.7739C16.0197 21.7739 16.6897 21.1039 16.6897 20.2739V19.7739H13.6897V20.2739Z" fill="#30C884"/>
<path d="M20.5197 5.89393C19.7697 5.17239 18.7597 4.77393 17.6897 4.77393C15.4797 4.77393 13.6897 6.4647 13.6897 8.54316V18.7739H16.6897V12.1939C18.0297 12.5278 19.5297 12.1401 20.5197 11.1924C20.6297 11.0955 20.6897 10.9447 20.6897 10.7939V6.29239C20.6897 6.14162 20.6297 5.99085 20.5197 5.89393ZM17.1897 8.0047C16.9137 8.0047 16.6897 8.24593 16.6897 8.54316C16.6897 8.84039 16.4657 9.08162 16.1897 9.08162C15.9137 9.08162 15.6897 8.84039 15.6897 8.54316C15.6897 7.65254 16.3627 6.92777 17.1897 6.92777C17.4657 6.92777 17.6897 7.169 17.6897 7.46623C17.6897 7.76346 17.4657 8.0047 17.1897 8.0047ZM19.1697 9.08162C18.8937 9.08162 18.6697 8.84039 18.6697 8.54316C18.6697 8.24593 18.8937 8.0047 19.1697 8.0047H19.1797C19.4557 8.0047 19.6747 8.24593 19.6747 8.54316C19.6747 8.84039 19.4457 9.08162 19.1697 9.08162Z" fill="#30C884"/>
</svg>
