<svg width="19" height="13" viewBox="0 0 19 13" fill="none" xmlns="http://www.w3.org/2000/svg">
<path fill-rule="evenodd" clip-rule="evenodd" d="M16.3173 0.391639C17.1015 0.602769 17.7198 1.22108 17.9309 2.00527C18.323 3.43793 18.3079 6.4239 18.3079 6.4239C18.3079 6.4239 18.3079 9.3948 17.9309 10.8275C17.7198 11.6117 17.1015 12.23 16.3173 12.4411C14.8846 12.8181 9.15396 12.8181 9.15396 12.8181C9.15396 12.8181 3.43839 12.8181 1.99065 12.426C1.20645 12.2149 0.588146 11.5966 0.377017 10.8124C0 9.3948 0 6.40882 0 6.40882C0 6.40882 0 3.43793 0.377017 2.00527C0.588146 1.22108 1.22153 0.587688 1.99065 0.376559C3.42331 -0.000457764 9.15396 -0.000457764 9.15396 -0.000457764C9.15396 -0.000457764 14.8846 -0.000457764 16.3173 0.391639ZM12.095 6.40887L7.32948 9.15355V3.66419L12.095 6.40887Z" fill="#30C884"/>
</svg>
