<svg width="17" height="11" viewBox="0 0 17 11" fill="none" xmlns="http://www.w3.org/2000/svg">
<path fill-rule="evenodd" clip-rule="evenodd" d="M15.652 0.697232C15.7634 0.295329 15.652 -6.86646e-05 15.1219 -6.86646e-05H13.3694C12.9237 -6.86646e-05 12.7184 0.255084 12.607 0.536524C12.607 0.536524 11.7157 2.88791 10.4532 4.41531C10.0447 4.85745 9.85905 4.99797 9.63623 4.99797C9.52482 4.99797 9.36358 4.85745 9.36358 4.45555V0.697232C9.36358 0.21484 9.23427 -6.86646e-05 8.86286 -6.86646e-05H6.10886C5.83046 -6.86646e-05 5.66296 0.223783 5.66296 0.435981C5.66296 0.893305 6.29413 0.998726 6.35922 2.28492V5.0786C6.35922 5.69107 6.25708 5.80218 6.03425 5.80218C5.44014 5.80218 3.99504 3.44009 3.1378 0.737476C2.96981 0.21213 2.80131 -6.86646e-05 2.35341 -6.86646e-05H0.600871C0.100145 -6.86646e-05 0 0.255084 0 0.536524C0 1.03897 0.594237 3.53115 2.76651 6.82713C4.21486 9.07784 6.25507 10.2982 8.11177 10.2982C9.22588 10.2982 9.36358 10.0272 9.36358 9.56037V7.85912C9.36358 7.31711 9.46911 7.20898 9.82175 7.20898C10.0819 7.20898 10.5274 7.34963 11.5673 8.43488C12.7555 9.72094 12.9513 10.2982 13.6198 10.2982H15.3723C15.873 10.2982 16.1234 10.0272 15.9789 9.49234C15.8209 8.95927 15.2536 8.18609 14.5008 7.26928C14.0923 6.74664 13.4796 6.18389 13.294 5.90259C13.034 5.5408 13.1083 5.38009 13.294 5.05868C13.294 5.05868 15.4291 1.80267 15.652 0.697232Z" fill="#30C884"/>
</svg>
