<svg width="24" height="20" viewBox="0 0 24 20" fill="none" xmlns="http://www.w3.org/2000/svg">
<path d="M11.9999 18.5335C11.9999 18.5335 1.33325 13.1032 1.33325 6.50923C1.33347 5.34378 1.77768 4.21437 2.59037 3.31303C3.40305 2.41168 4.53404 1.79402 5.79105 1.56507C7.04806 1.33613 8.3535 1.51002 9.48542 2.05719C10.6173 2.60435 11.5059 3.49102 11.9999 4.56644L11.9999 4.56645C12.494 3.49103 13.3825 2.60436 14.5144 2.05719C15.6463 1.51002 16.9518 1.33613 18.2088 1.56507C19.4658 1.79402 20.5968 2.41167 21.4095 3.31302C22.2222 4.21437 22.6664 5.34378 22.6666 6.50923C22.6666 13.1032 11.9999 18.5335 11.9999 18.5335Z" stroke="#737C92" stroke-width="1.6" stroke-linecap="round" stroke-linejoin="round"/>
</svg>
