<svg width="15" height="15" viewBox="0 0 15 15" fill="none" xmlns="http://www.w3.org/2000/svg">
<path d="M12.7271 2.17136C11.349 0.764238 9.44396 0.00037384 7.49842 0.00037384C3.36416 0.00037384 0.040532 3.33725 0.0810641 7.3978C0.0810641 8.6843 0.445852 9.93061 1.05383 11.0563L0 14.8756L3.93161 13.8705C5.02597 14.4736 6.24193 14.755 7.45789 14.755C11.5516 14.755 14.8753 11.4181 14.8753 7.35759C14.8753 5.38763 14.1051 3.53827 12.7271 2.17136ZM7.49842 13.5087C6.40406 13.5087 5.30969 13.2273 4.37746 12.6644L4.13427 12.5438L1.78341 13.1469L2.39139 10.8553L2.22926 10.6141C0.445852 7.75963 1.29702 3.98051 4.21533 2.21156C7.13364 0.442611 10.9031 1.28688 12.6865 4.18153C14.4699 7.07617 13.6188 10.8151 10.7005 12.584C9.76822 13.1871 8.63332 13.5087 7.49842 13.5087ZM11.0652 9.04613L10.6194 8.84512C10.6194 8.84512 9.97088 8.56369 9.56556 8.36268C9.52502 8.36268 9.48449 8.32247 9.44396 8.32247C9.32236 8.32247 9.2413 8.36268 9.16024 8.40288C9.16024 8.40288 9.1197 8.44308 8.55226 9.08634C8.51172 9.16674 8.43066 9.20695 8.3496 9.20695H8.30906C8.26853 9.20695 8.18747 9.16674 8.14694 9.12654L7.94428 9.04613C7.49842 8.84512 7.0931 8.6039 6.76885 8.28227C6.68778 8.20186 6.56619 8.12146 6.48512 8.04105C6.2014 7.75963 5.91768 7.438 5.71501 7.07617L5.67448 6.99576C5.63395 6.95556 5.63395 6.91535 5.59342 6.83495C5.59342 6.75454 5.59342 6.67414 5.63395 6.63393C5.63395 6.63393 5.79608 6.43291 5.91768 6.3123C5.99874 6.2319 6.03927 6.11129 6.12034 6.03088C6.2014 5.91027 6.24193 5.74946 6.2014 5.62885C6.16087 5.42783 5.67448 4.34234 5.55289 4.10112C5.47182 3.98051 5.39076 3.9403 5.26916 3.9001H5.14757C5.0665 3.9001 4.94491 3.9001 4.82331 3.9001C4.74225 3.9001 4.66118 3.9403 4.58012 3.9403L4.53959 3.98051C4.45852 4.02071 4.37746 4.10112 4.29639 4.14132C4.21533 4.22173 4.1748 4.30213 4.09373 4.38254C3.81001 4.74437 3.64788 5.18661 3.64788 5.62885C3.64788 5.95047 3.72895 6.2721 3.85054 6.55352L3.89107 6.67413C4.25586 7.438 4.74225 8.12146 5.39076 8.72451L5.55289 8.88532C5.67448 9.00593 5.79608 9.08634 5.87714 9.20695C6.72832 9.93061 7.70108 10.4533 8.79545 10.7347C8.91704 10.7749 9.07917 10.7749 9.20077 10.8151C9.32236 10.8151 9.48449 10.8151 9.60609 10.8151C9.80875 10.8151 10.0519 10.7347 10.2141 10.6543C10.3357 10.5739 10.4167 10.5739 10.4978 10.4935L10.5789 10.413C10.6599 10.3326 10.741 10.2924 10.822 10.212C10.9031 10.1316 10.9842 10.0512 11.0247 9.97081C11.1058 9.81 11.1463 9.60898 11.1868 9.40796C11.1868 9.32756 11.1868 9.20695 11.1868 9.12654C11.1868 9.12654 11.1463 9.08634 11.0652 9.04613Z" fill="white"/>
</svg>
